<svg width="91" height="25" viewBox="0 0 91 25" fill="none" xmlns="http://www.w3.org/2000/svg">
<g clip-path="url(#clip0_416_80)">
<path d="M17.5417 10.6676H9.88843C9.79354 10.6677 9.70256 10.7059 9.63548 10.7738C9.5684 10.8418 9.5307 10.9338 9.53065 11.0299V14.8164C9.53065 15.0162 9.69097 15.1788 9.88825 15.1788H12.874V19.8833C12.874 19.8833 12.2036 20.1146 10.3502 20.1146C8.16352 20.1146 5.1088 19.3059 5.1088 12.5088C5.1088 5.71025 8.28971 4.81583 11.2758 4.81583C13.8606 4.81583 14.9743 5.27626 15.6827 5.4982C15.9054 5.56727 16.1114 5.34298 16.1114 5.14298L16.9651 1.48435C16.9651 1.39083 16.9338 1.27824 16.8284 1.2018C16.5407 0.994065 14.7852 0 10.35 0C5.24103 0 0 2.19964 0 12.7739C0 23.3486 6.00031 24.9243 11.0569 24.9243C15.2434 24.9243 17.783 23.1138 17.783 23.1138C17.8879 23.0554 17.8991 22.9074 17.8991 22.8394V11.0299C17.8991 10.8302 17.739 10.6676 17.5417 10.6676ZM56.9633 1.32356C56.9633 1.12212 56.8055 0.959532 56.608 0.959532H52.2987C52.2516 0.959721 52.2051 0.969286 52.1617 0.987683C52.1183 1.00608 52.0789 1.03295 52.0457 1.06675C52.0126 1.10055 51.9864 1.14063 51.9685 1.18469C51.9507 1.22876 51.9416 1.27594 51.9418 1.32356L51.9429 9.7509H45.2259V1.32374C45.2259 1.1223 45.0674 0.959712 44.8703 0.959712H40.5608C40.4659 0.960235 40.375 0.998877 40.3083 1.06714C40.2415 1.1354 40.2043 1.2277 40.2048 1.32374V24.1424C40.2048 24.3439 40.3647 24.5075 40.5608 24.5075H44.8699C45.067 24.5075 45.2254 24.3439 45.2254 24.1424V14.382H51.9425L51.9308 24.1423C51.9308 24.3437 52.0907 24.5074 52.2877 24.5074H56.6073C56.8046 24.5074 56.9624 24.3437 56.9628 24.1423L56.9633 1.32356ZM25.6595 4.37446C25.6595 2.80432 24.4154 1.53525 22.8806 1.53525C21.3473 1.53525 20.1023 2.80414 20.1023 4.37446C20.1023 5.94281 21.3473 7.21529 22.8806 7.21529C24.4154 7.21529 25.6595 5.94281 25.6595 4.37446ZM25.3176 19.3406V8.80755C25.3178 8.71153 25.2804 8.61932 25.2136 8.55116C25.1468 8.48301 25.0559 8.44449 24.961 8.44406H20.6654C20.4682 8.44406 20.2921 8.64982 20.2921 8.84982V23.9406C20.2921 24.3842 20.5651 24.516 20.9186 24.516H24.7888C25.2136 24.516 25.3176 24.305 25.3176 23.9335V19.3406ZM73.4331 8.44424H69.1568C68.9606 8.44424 68.801 8.60773 68.801 8.80899V19.9978C68.801 19.9978 67.7147 20.8022 66.1726 20.8022C64.6306 20.8022 64.2216 20.0941 64.2216 18.5664V8.80917C64.2216 8.60773 64.0622 8.44406 63.866 8.44406H59.5259C59.33 8.44406 59.1696 8.60773 59.1696 8.80917V19.3052C59.1696 23.843 61.669 24.9532 65.1073 24.9532C67.9279 24.9532 70.2021 23.3764 70.2021 23.3764C70.2021 23.3764 70.3105 24.2074 70.3594 24.3059C70.4084 24.4043 70.536 24.5034 70.6739 24.5034L73.435 24.4912C73.6309 24.4912 73.7914 24.3273 73.7914 24.127L73.79 8.80899C73.7904 8.71276 73.753 8.62031 73.6861 8.55192C73.6192 8.48354 73.5282 8.44481 73.4331 8.44424ZM83.2858 20.8108C81.8026 20.7651 80.7964 20.084 80.7964 20.084V12.8576C80.7964 12.8576 81.7891 12.2419 83.0068 12.1318C84.5466 11.9923 86.0305 12.4629 86.0305 16.1804C86.0305 20.1004 85.3608 20.8741 83.2858 20.8108ZM84.9725 7.95396C82.5438 7.95396 80.8917 9.05054 80.8917 9.05054V1.32356C80.892 1.27603 80.8831 1.22889 80.8654 1.18486C80.8477 1.14082 80.8216 1.10075 80.7886 1.06694C80.7556 1.03313 80.7163 1.00624 80.673 0.987806C80.6297 0.969375 80.5832 0.959768 80.5362 0.959532H76.2146C76.1676 0.959744 76.1211 0.969331 76.0778 0.987744C76.0344 1.00616 75.9951 1.03304 75.962 1.06685C75.9289 1.10065 75.9027 1.14073 75.885 1.18478C75.8672 1.22883 75.8582 1.27599 75.8585 1.32356V24.1423C75.8585 24.3437 76.0181 24.5074 76.2152 24.5074H79.2135C79.3486 24.5074 79.4508 24.4372 79.5264 24.3137C79.6008 24.191 79.7084 23.2615 79.7084 23.2615C79.7084 23.2615 81.4754 24.9561 84.8205 24.9561C88.7477 24.9561 91 22.9403 91 15.9067C91 8.87302 87.403 7.95396 84.9725 7.95396ZM37.7204 8.40468H34.4879L34.483 4.08327C34.483 3.91978 34.3998 3.83795 34.2128 3.83795H29.8078C29.6365 3.83795 29.5446 3.91421 29.5446 4.08075V8.54658C29.5446 8.54658 27.3371 9.08579 27.1878 9.12932C27.1134 9.1511 27.0479 9.19682 27.0013 9.25957C26.9548 9.32232 26.9297 9.39869 26.9298 9.47716V12.2835C26.9298 12.4852 27.089 12.648 27.2861 12.648H29.5446V19.3991C29.5446 24.4135 33.0204 24.9061 35.3659 24.9061C36.4377 24.9061 37.7197 24.5577 37.9314 24.4788C38.0593 24.4311 38.1336 24.2971 38.1336 24.1514L38.1372 21.0644C38.1372 20.8631 37.9692 20.7002 37.7799 20.7002C37.5915 20.7002 37.1099 20.7777 36.6136 20.7777C35.0259 20.7777 34.4879 20.0306 34.4879 19.0637L34.4878 12.6482H37.7204C37.7675 12.648 37.8141 12.6384 37.8575 12.62C37.9009 12.6015 37.9403 12.5746 37.9735 12.5407C38.0066 12.5068 38.0328 12.4667 38.0505 12.4225C38.0683 12.3784 38.0773 12.3311 38.0769 12.2835V8.76852C38.0769 8.56709 37.9175 8.40468 37.7204 8.40468Z" fill="#F0F0F0"/>
</g>
<defs>
<clipPath id="clip0_416_80">
<rect width="91" height="25" fill="white"/>
</clipPath>
</defs>
</svg>
