<svg width="97" height="32" viewBox="0 0 97 32" fill="none" xmlns="http://www.w3.org/2000/svg">
<g clip-path="url(#clip0_416_71)">
<path d="M93.9787 19.5566L96.6697 21.3602C95.7963 22.6536 93.7074 24.8726 90.0958 24.8726C85.6111 24.8726 82.2712 21.384 82.2712 16.9461C82.2712 12.2236 85.6465 9.01984 89.7183 9.01984C93.8135 9.01984 95.8198 12.2947 96.469 14.0627L96.8231 14.9646L86.2721 19.3549C87.0746 20.945 88.3258 21.7518 90.0958 21.7518C91.8663 21.7518 93.0936 20.8737 93.9787 19.5566ZM85.7056 16.6972L92.7514 13.7543C92.3619 12.7696 91.2055 12.0696 89.8244 12.0696C88.066 12.0696 85.623 13.6358 85.7056 16.6972Z" fill="#F0F0F0"/>
<path d="M77.1846 0.939209H80.5834V24.1487H77.1846V0.939209Z" fill="#F0F0F0"/>
<path d="M71.8263 9.63676H75.1073V23.7333C75.1073 29.583 71.6729 31.9918 67.6129 31.9918C63.7892 31.9918 61.4879 29.4051 60.6262 27.3049L63.6357 26.047C64.1785 27.3404 65.4886 28.8712 67.6129 28.8712C70.2211 28.8712 71.8263 27.2455 71.8263 24.208V23.0689H71.7083C70.9293 24.0181 69.4423 24.8724 67.554 24.8724C63.612 24.8724 60.0005 21.4194 60.0005 16.9699C60.0005 12.4964 63.612 9.008 67.554 9.008C69.4305 9.008 70.9293 9.85047 71.7083 10.776H71.8263V9.63676ZM72.0622 16.9699C72.0622 14.1695 70.2094 12.1286 67.849 12.1286C65.4649 12.1286 63.4586 14.1695 63.4586 16.9699C63.4586 19.7345 65.4649 21.7398 67.849 21.7398C70.2095 21.7518 72.0624 19.7345 72.0624 16.9699" fill="#F0F0F0"/>
<path d="M41.3416 16.9104C41.3416 21.4788 37.8011 24.8367 33.4579 24.8367C29.1149 24.8367 25.5742 21.467 25.5742 16.9104C25.5742 12.3184 29.1149 8.97235 33.4579 8.97235C37.8011 8.97235 41.3416 12.3184 41.3416 16.9104ZM37.8955 16.9104C37.8955 14.0628 35.8418 12.1047 33.4579 12.1047C31.074 12.1047 29.0204 14.0628 29.0204 16.9104C29.0204 19.7344 31.074 21.7162 33.4579 21.7162C35.842 21.7162 37.8955 19.7344 37.8955 16.9104Z" fill="#F0F0F0"/>
<path d="M58.5609 16.9461C58.5609 21.5145 55.0202 24.8724 50.6772 24.8724C46.334 24.8724 42.7935 21.5143 42.7935 16.9461C42.7935 12.3541 46.334 9.01984 50.6772 9.01984C55.0202 9.01984 58.5609 12.3423 58.5609 16.9461ZM55.1028 16.9461C55.1028 14.0985 53.0493 12.1404 50.6652 12.1404C48.2812 12.1404 46.2277 14.0985 46.2277 16.9461C46.2277 19.7701 48.2813 21.7518 50.6652 21.7518C53.0611 21.7518 55.1028 19.7583 55.1028 16.9461Z" fill="#F0F0F0"/>
<path d="M12.6156 21.3958C7.67049 21.3958 3.79959 17.3851 3.79959 12.4133C3.79959 7.4417 7.67049 3.43104 12.6156 3.43104C15.2829 3.43104 17.2301 4.48704 18.67 5.8398L21.0423 3.45485C19.036 1.52075 16.3569 0.0491333 12.6156 0.0491333C5.84132 0.0493238 0.140869 5.60266 0.140869 12.4133C0.140869 19.224 5.84132 24.7775 12.6156 24.7775C16.2743 24.7775 19.036 23.5672 21.1957 21.3127C23.4144 19.0819 24.0989 15.9493 24.0989 13.4101C24.0989 12.615 24.0046 11.7964 23.8983 11.1912H12.6156V14.4899H20.6528C20.4167 16.5547 19.7676 17.9667 18.8117 18.9276C17.6551 20.1025 15.8259 21.3958 12.6156 21.3958Z" fill="#F0F0F0"/>
</g>
<defs>
<clipPath id="clip0_416_71">
<rect width="97" height="32" fill="white"/>
</clipPath>
</defs>
</svg>
