<svg width="24" height="21" viewBox="0 0 24 21" fill="none" xmlns="http://www.w3.org/2000/svg">
<path d="M3.2 0C2.35131 0 1.53738 0.340384 0.937259 0.946272C0.337142 1.55216 0 2.37392 0 3.23078V17.7693C0 18.6261 0.337142 19.4479 0.937259 20.0538C1.53738 20.6597 2.35131 21 3.2 21H8.00001V0H3.2Z" fill="#141414"/>
<path d="M7.99988 0H15.9999V21H7.99988V0Z" fill="#FDDA24"/>
<path d="M20.8 0H16V21H20.8C21.6487 21 22.4626 20.6597 23.0628 20.0538C23.6629 19.4479 24 18.6261 24 17.7693V3.23078C24 2.37392 23.6629 1.55216 23.0628 0.946272C22.4626 0.340384 21.6487 0 20.8 0Z" fill="#EF3340"/>
</svg>
