<svg width="110" height="27" viewBox="0 0 110 27" fill="none" xmlns="http://www.w3.org/2000/svg">
<g clip-path="url(#clip0_416_78)">
<path d="M43.4107 15.8142L49.4804 23.1428H44.6875L39.2857 16.4122V23.1428H35.357V3.8572H39.2857V15.1972L44.275 9.6428H49.2839L43.4107 15.8142ZM27.6964 9.2572C26.8362 9.2699 25.992 9.48706 25.236 9.89009C24.48 10.2931 23.8347 10.87 23.3554 11.5714V9.6428H19.643V23.1428H23.5714V16.8364C23.5198 16.3787 23.5648 15.9154 23.7034 15.4755C23.8421 15.0355 24.0715 14.6283 24.3773 14.2792C24.6832 13.93 25.059 13.6464 25.4813 13.446C25.9036 13.2456 26.3634 13.1326 26.8321 13.1142C29.1107 13.1142 29.4643 15.3128 29.4643 16.8364V23.1428H33.3929V15.9878C33.3929 11.745 31.9589 9.2572 27.775 9.2572H27.6964ZM62.8571 16.7014C62.8721 16.9842 62.8721 17.2671 62.8571 17.55H52.5446V17.685C52.712 18.4892 53.1658 19.2086 53.8246 19.714C54.4834 20.2194 55.304 20.4778 56.1393 20.4428C56.8019 20.4711 57.4636 20.3678 58.0846 20.1392C58.7056 19.9106 59.2733 19.5613 59.7536 19.1122L62.3661 21.0408C61.5382 21.8705 60.5422 22.5205 59.4426 22.949C58.343 23.3775 57.1642 23.575 55.9821 23.5286C55.0031 23.5893 54.0223 23.4431 53.1058 23.0997C52.1894 22.7564 51.3587 22.224 50.6697 21.5384C49.9808 20.8529 49.4498 20.0301 49.1124 19.1258C48.7751 18.2215 48.6393 17.2566 48.7143 16.2964C48.6942 15.3485 48.8731 14.4066 49.24 13.5295C49.6069 12.6525 50.1538 11.859 50.8467 11.1986C51.5397 10.5381 52.3637 10.0249 53.2675 9.69094C54.1713 9.35693 55.1355 9.20928 56.1 9.2572C59.7929 9.2572 62.8571 11.8222 62.8571 16.7014ZM59.2036 15.0428C59.1892 14.6608 59.0956 14.2857 58.9287 13.9403C58.7618 13.595 58.5251 13.2866 58.2329 13.034C57.9407 12.7814 57.5991 12.5898 57.2291 12.471C56.859 12.3522 56.4682 12.3085 56.0804 12.3428C54.3531 12.1595 52.7888 13.354 52.5446 15.0428H59.2036ZM3.92863 3.8572H0V23.1428H11.7857V19.286H3.92863V3.8572ZM74.6429 3.8572H78.5714V23.1428H74.8589V21.7928C74.3874 22.363 73.7866 22.817 73.1045 23.1184C72.4223 23.4198 71.6778 23.5603 70.9305 23.5286C70.0174 23.5056 69.1188 23.2995 68.2899 22.9229C67.4609 22.5464 66.7192 22.0074 66.1102 21.3391C65.5013 20.6707 65.0379 19.8872 64.7488 19.0366C64.4596 18.186 64.3506 17.2863 64.4286 16.3928C64.3359 15.4981 64.4338 14.5942 64.7163 13.7386C64.9987 12.8831 65.4595 12.0947 66.0692 11.4235C66.6789 10.7523 67.4242 10.2131 68.2577 9.84013C69.0913 9.46717 69.9948 9.26865 70.9107 9.2572C71.5929 9.22781 72.2743 9.33204 72.915 9.56381C73.5558 9.79559 74.1432 10.1503 74.6429 10.6072V3.8572ZM74.9375 16.3928C74.9993 15.9475 74.9631 15.4943 74.8313 15.0639C74.6996 14.6334 74.4754 14.2358 74.1738 13.8976C73.8722 13.5595 73.5003 13.2888 73.0831 13.1037C72.6659 12.9187 72.2132 12.8237 71.7554 12.825C69.8762 12.9589 68.4522 14.5456 68.5536 16.3928C68.4522 18.24 69.8762 19.8269 71.7554 19.9608C72.2132 19.9621 72.666 19.8671 73.0832 19.682C73.5004 19.497 73.8723 19.2263 74.1739 18.8881C74.4755 18.55 74.6997 18.1522 74.8314 17.7218C74.9631 17.2913 74.9993 16.8381 74.9375 16.3928ZM15.7143 3.4714C15.0826 3.48014 14.4777 3.72394 14.022 4.15356C13.5662 4.58319 13.2935 5.16662 13.2589 5.78602C13.2589 7.11724 14.3582 8.19661 15.7143 8.19661C17.0704 8.19661 18.1693 7.11703 18.1693 5.78602C18.1347 5.16669 17.862 4.58334 17.4063 4.15377C16.9505 3.72419 16.346 3.48019 15.7143 3.4714ZM13.75 23.1428H17.6786V9.6428H13.75V23.1428ZM110 1.9286V25.0714C110 25.5829 109.793 26.0734 109.425 26.4351C109.056 26.7968 108.557 27 108.036 27H84.4643C83.9433 27 83.4437 26.7968 83.0753 26.4351C82.707 26.0734 82.5 25.5829 82.5 25.0714V1.9286C82.5 1.4171 82.707 0.926557 83.0753 0.564874C83.4437 0.203191 83.9433 0 84.4643 0L108.036 0C108.557 0 109.056 0.203191 109.425 0.564874C109.793 0.926557 110 1.4171 110 1.9286ZM90.357 9.6428H86.4286V23.1428H90.357V9.6428ZM90.8482 5.7858C90.8482 4.45437 89.7488 3.375 88.3929 3.375C87.0371 3.375 85.9375 4.45437 85.9375 5.7858C85.9375 7.11703 87.0368 8.1964 88.3929 8.1964C89.7488 8.1964 90.8482 7.11703 90.8482 5.7858ZM106.071 15.9878C106.071 11.745 104.638 9.2572 100.454 9.2572C99.5801 9.25733 98.72 9.4685 97.9492 9.87208C97.1785 10.2757 96.5207 10.8593 96.0339 11.5714V9.6428H92.3214V23.1428H96.25V16.8364C96.1984 16.3787 96.2434 15.9154 96.382 15.4755C96.5207 15.0355 96.7501 14.6283 97.056 14.2792C97.3618 13.93 97.7376 13.6464 98.1599 13.446C98.5822 13.2456 99.042 13.1326 99.5107 13.1142C101.789 13.1142 102.143 15.3128 102.143 16.8364V23.1428H106.071V15.9878Z" fill="#F0F0F0"/>
</g>
<defs>
<clipPath id="clip0_416_78">
<rect width="110" height="27" fill="white"/>
</clipPath>
</defs>
</svg>
