<svg width="39" height="32" viewBox="0 0 39 32" fill="none" xmlns="http://www.w3.org/2000/svg">
<path d="M19.9768 0.400391C21.0182 0.406241 23.6235 0.431592 26.3926 0.542748L27.3755 0.585649C30.1622 0.716306 32.9469 0.942518 34.3295 1.32669C36.1724 1.84541 37.6193 3.35479 38.1088 5.26978C38.8888 8.31194 38.9863 14.2441 38.998 15.6814L39 15.9778V16.3171C38.9864 17.7543 38.8888 23.6885 38.1088 26.7287C37.6135 28.6495 36.1646 30.1608 34.3295 30.6718C32.9469 31.0559 30.1622 31.2821 27.3755 31.4128L26.3926 31.4576C23.6235 31.5668 21.0182 31.5941 19.9768 31.598L19.5185 31.6H19.0212C16.8176 31.5863 7.60148 31.4869 4.66853 30.6718C2.82764 30.153 1.37872 28.6436 0.889245 26.7287C0.109206 23.6865 0.0117006 17.7543 0 16.3171V15.6814C0.0117006 14.2441 0.109206 8.30999 0.889245 5.26978C1.38457 3.34894 2.83349 1.83761 4.67048 1.32864C7.60148 0.511546 16.8196 0.412091 19.0232 0.400391H19.9768ZM15.5988 9.17583V22.8265L27.2994 16.0012L15.5988 9.17583Z" fill="white"/>
</svg>
