<svg width="37" height="37" viewBox="0 0 37 37" fill="none" xmlns="http://www.w3.org/2000/svg">
<path fill-rule="evenodd" clip-rule="evenodd" d="M34.9576 0H2.0424C0.9139 0 0 0.9139 0 2.0424V34.9576C0 36.0861 0.9139 37 2.0424 37H19.7617V22.6718H14.9406V17.0885H19.7617V12.9685C19.7617 8.1881 22.681 5.587 26.9452 5.587C28.9876 5.587 30.7414 5.7387 31.2539 5.80715V10.8022H28.2976C25.9777 10.8022 25.53 11.9047 25.53 13.5217V17.0866H31.0597L30.3382 22.6699H25.5282V37H34.9576C36.0861 37 37 36.0861 37 34.9576V2.0424C37 0.9139 36.0861 0 34.9576 0Z" fill="white"/>
</svg>
