<svg width="115" height="41" viewBox="0 0 115 41" fill="none" xmlns="http://www.w3.org/2000/svg">
<g clip-path="url(#clip0_416_65)">
<path d="M23.5391 12.2923C24.6902 12.079 25.7574 11.5442 26.6173 10.7498C27.4772 9.95539 28.0946 8.9338 28.3982 7.80318C28.7018 6.67256 28.6792 5.47909 28.333 4.36078C27.9867 3.24248 27.331 2.24503 26.4416 1.48378C25.5522 0.722523 24.4656 0.228567 23.3072 0.0590291C22.1489 -0.110509 20.9662 0.0512982 19.896 0.525738C18.8258 1.00018 17.9117 1.76787 17.2595 2.74003C16.6072 3.7122 16.2435 4.84912 16.2104 6.01933H19.229C21.6096 6.01933 23.5391 7.9489 23.5391 10.3295V12.2923ZM12.5332 32.121H19.229C21.6096 32.121 23.5391 30.1914 23.5391 27.8108V14.2988H30.6706C31.1455 14.3109 31.5961 14.5108 31.9238 14.8548C32.2514 15.1987 32.4292 15.6586 32.4182 16.1335V27.1369C32.4842 29.986 31.4168 32.7448 29.4502 34.8074C27.4837 36.8701 24.7789 38.0679 21.9299 38.1377C17.7838 38.0352 14.2424 35.6008 12.5332 32.1158V32.121ZM40.0468 8.10521C40.0468 8.6687 39.9358 9.22667 39.7201 9.74727C39.5045 10.2679 39.1884 10.7409 38.79 11.1393C38.3915 11.5378 37.9185 11.8539 37.3979 12.0695C36.8773 12.2851 36.3193 12.3961 35.7559 12.3961C35.1924 12.3961 34.6344 12.2851 34.1138 12.0695C33.5932 11.8539 33.1202 11.5378 32.7217 11.1393C32.3233 10.7409 32.0072 10.2679 31.7916 9.74727C31.5759 9.22667 31.465 8.6687 31.465 8.10521C31.465 6.96719 31.917 5.87578 32.7217 5.07108C33.5264 4.26638 34.6178 3.8143 35.7559 3.8143C36.8939 3.8143 37.9853 4.26638 38.79 5.07108C39.5947 5.87578 40.0468 6.96719 40.0468 8.10521ZM34.3119 32.4182L34.0044 32.4131C34.688 30.73 35.0202 28.9249 34.9807 27.1087V16.1591C34.9906 15.5192 34.8594 14.8848 34.5963 14.3013H39.1883C40.1877 14.3013 41 15.1136 41 16.113V25.7608C40.9987 27.5261 40.2968 29.2186 39.0486 30.4668C37.8004 31.715 36.1079 32.4169 34.3426 32.4182H34.3119Z" fill="#F0F0F0"/>
<path d="M1.74763 8.58185H19.229C20.1951 8.58185 20.9766 9.36341 20.9766 10.3295V27.8108C20.9773 28.0405 20.9326 28.2681 20.845 28.4804C20.7574 28.6928 20.6287 28.8857 20.4663 29.0481C20.3039 29.2105 20.1109 29.3392 19.8986 29.4268C19.6863 29.5144 19.4587 29.5591 19.229 29.5585H1.74763C1.51794 29.5591 1.29038 29.5144 1.07805 29.4268C0.865709 29.3392 0.672783 29.2105 0.510366 29.0481C0.34795 28.8857 0.219246 28.6928 0.13166 28.4804C0.0440729 28.2681 -0.000669002 28.0405 7.55971e-06 27.8108V10.3269C7.55971e-06 9.36085 0.78157 8.58185 1.74763 8.58185ZM15.088 15.2341V13.3891H5.88863V15.2341H9.36594V24.7538H11.5953V15.2341H15.088Z" fill="#F0F0F0"/>
</g>
<path d="M53.9659 15.017V13.4545H64.875V15.017H60.3011V28H58.5398V15.017H53.9659ZM70.358 28.2273C69.3068 28.2273 68.4001 27.9953 67.6378 27.5312C66.8802 27.0625 66.2955 26.4091 65.8835 25.571C65.4763 24.7282 65.2727 23.7481 65.2727 22.6307C65.2727 21.5133 65.4763 20.5284 65.8835 19.6761C66.2955 18.8191 66.8684 18.1515 67.6023 17.6733C68.3409 17.1903 69.2027 16.9489 70.1875 16.9489C70.7557 16.9489 71.3168 17.0436 71.8707 17.233C72.4247 17.4223 72.929 17.7301 73.3835 18.1562C73.8381 18.5777 74.2003 19.1364 74.4702 19.8324C74.7401 20.5284 74.875 21.3854 74.875 22.4034V23.1136H66.4659V21.6648H73.1705C73.1705 21.0492 73.0473 20.5 72.8011 20.017C72.5597 19.5341 72.214 19.1529 71.7642 18.8736C71.3191 18.5942 70.7936 18.4545 70.1875 18.4545C69.5199 18.4545 68.9422 18.6203 68.4545 18.9517C67.9716 19.2784 67.5999 19.7045 67.3395 20.2301C67.0791 20.7557 66.9489 21.3191 66.9489 21.9205V22.8864C66.9489 23.7102 67.0909 24.4086 67.375 24.9815C67.6638 25.5497 68.0639 25.983 68.5753 26.2812C69.0866 26.5748 69.6809 26.7216 70.358 26.7216C70.7983 26.7216 71.196 26.66 71.5511 26.5369C71.911 26.4091 72.2211 26.2197 72.4815 25.9688C72.742 25.7131 72.9432 25.3958 73.0852 25.017L74.7045 25.4716C74.5341 26.0208 74.2476 26.5038 73.8452 26.9205C73.4427 27.3324 72.9455 27.6544 72.3537 27.8864C71.7618 28.1136 71.0966 28.2273 70.358 28.2273ZM80.6349 28.2557C79.9437 28.2557 79.3163 28.1255 78.7528 27.8651C78.1894 27.5999 77.742 27.2188 77.4105 26.7216C77.0791 26.2197 76.9134 25.6136 76.9134 24.9034C76.9134 24.2784 77.0365 23.7718 77.2827 23.3835C77.5289 22.9905 77.858 22.6828 78.2699 22.4602C78.6818 22.2377 79.1364 22.072 79.6335 21.9631C80.1354 21.8494 80.6397 21.7595 81.1463 21.6932C81.8092 21.608 82.3466 21.544 82.7585 21.5014C83.1752 21.4541 83.4782 21.3759 83.6676 21.267C83.8617 21.1581 83.9588 20.9687 83.9588 20.6989V20.642C83.9588 19.9413 83.767 19.3968 83.3835 19.0085C83.0047 18.6203 82.4295 18.4261 81.6577 18.4261C80.8575 18.4261 80.2301 18.6013 79.7756 18.9517C79.321 19.3021 79.0014 19.6761 78.8168 20.0739L77.2259 19.5057C77.5099 18.8428 77.8887 18.3267 78.3622 17.9574C78.8404 17.5833 79.3613 17.3229 79.9247 17.1761C80.4929 17.0246 81.0516 16.9489 81.6009 16.9489C81.9512 16.9489 82.3537 16.9915 82.8082 17.0767C83.2675 17.1572 83.7102 17.3253 84.1364 17.581C84.5672 17.8366 84.9247 18.2225 85.2088 18.7386C85.4929 19.2547 85.6349 19.946 85.6349 20.8125V28H83.9588V26.5227H83.8736C83.7599 26.7595 83.5705 27.0128 83.3054 27.2827C83.0402 27.5526 82.6875 27.7822 82.2472 27.9716C81.8068 28.161 81.2694 28.2557 80.6349 28.2557ZM80.8906 26.75C81.5535 26.75 82.1122 26.6198 82.5668 26.3594C83.026 26.099 83.3717 25.7628 83.6037 25.3509C83.8404 24.9389 83.9588 24.5057 83.9588 24.0511V22.517C83.8878 22.6023 83.7315 22.6804 83.4901 22.7514C83.2533 22.8177 82.9787 22.8769 82.6662 22.929C82.3584 22.9763 82.0578 23.0189 81.7642 23.0568C81.4754 23.09 81.241 23.1184 81.0611 23.142C80.6255 23.1989 80.2183 23.2912 79.8395 23.419C79.4654 23.5421 79.1624 23.7292 78.9304 23.9801C78.7031 24.2263 78.5895 24.5625 78.5895 24.9886C78.5895 25.571 78.8049 26.0114 79.2358 26.3097C79.6714 26.6032 80.223 26.75 80.8906 26.75ZM88.6942 28V17.0909H90.3136V18.7955H90.4556C90.6829 18.2131 91.0498 17.7609 91.5565 17.4389C92.0631 17.1122 92.6715 16.9489 93.3817 16.9489C94.1014 16.9489 94.7004 17.1122 95.1786 17.4389C95.6616 17.7609 96.038 18.2131 96.3079 18.7955H96.4215C96.7009 18.232 97.1199 17.7846 97.6786 17.4531C98.2373 17.117 98.9073 16.9489 99.6886 16.9489C100.664 16.9489 101.462 17.2543 102.082 17.8651C102.702 18.4711 103.012 19.4157 103.012 20.6989V28H101.336V20.6989C101.336 19.8939 101.116 19.3187 100.676 18.973C100.235 18.6274 99.717 18.4545 99.1204 18.4545C98.3533 18.4545 97.7591 18.6866 97.3377 19.1506C96.9163 19.6098 96.7056 20.1922 96.7056 20.8977V28H95.0011V20.5284C95.0011 19.9081 94.7998 19.4086 94.3974 19.0298C93.9949 18.6463 93.4764 18.4545 92.842 18.4545C92.4064 18.4545 91.9992 18.5705 91.6204 18.8026C91.2463 19.0346 90.9433 19.3565 90.7113 19.7685C90.484 20.1757 90.3704 20.6468 90.3704 21.1818V28H88.6942ZM113.804 19.5341L112.299 19.9602C112.204 19.7093 112.064 19.4654 111.88 19.2287C111.7 18.9872 111.453 18.7884 111.141 18.6321C110.828 18.4759 110.428 18.3977 109.941 18.3977C109.273 18.3977 108.717 18.5516 108.272 18.8594C107.831 19.1624 107.611 19.5483 107.611 20.017C107.611 20.4337 107.763 20.7628 108.066 21.0043C108.369 21.2457 108.842 21.447 109.486 21.608L111.105 22.0057C112.081 22.2424 112.808 22.6046 113.286 23.0923C113.764 23.5753 114.003 24.1979 114.003 24.9602C114.003 25.5852 113.823 26.1439 113.463 26.6364C113.108 27.1288 112.611 27.517 111.972 27.8011C111.333 28.0852 110.589 28.2273 109.742 28.2273C108.629 28.2273 107.708 27.9858 106.979 27.5028C106.25 27.0199 105.788 26.3144 105.594 25.3864L107.185 24.9886C107.337 25.5758 107.623 26.0161 108.044 26.3097C108.471 26.6032 109.027 26.75 109.713 26.75C110.495 26.75 111.115 26.5843 111.574 26.2528C112.038 25.9167 112.27 25.5142 112.27 25.0455C112.27 24.6667 112.138 24.3494 111.873 24.0938C111.607 23.8333 111.2 23.6392 110.651 23.5114L108.833 23.0852C107.834 22.8485 107.1 22.4815 106.631 21.9844C106.167 21.4825 105.935 20.8551 105.935 20.1023C105.935 19.4867 106.108 18.9422 106.453 18.4688C106.804 17.9953 107.28 17.6236 107.881 17.3537C108.487 17.0838 109.174 16.9489 109.941 16.9489C111.02 16.9489 111.868 17.1856 112.483 17.6591C113.104 18.1326 113.544 18.7576 113.804 19.5341Z" fill="white"/>
<defs>
<clipPath id="clip0_416_65">
<rect width="41" height="41" fill="white"/>
</clipPath>
</defs>
</svg>
