<svg width="27" height="29" viewBox="0 0 27 29" fill="none" xmlns="http://www.w3.org/2000/svg">
<path d="M11.417 0.981743C11.6598 0.688764 11.9611 0.450225 12.3012 0.281514C12.6414 0.112802 13.013 0.0176634 13.392 0.00223414C13.7709 -0.0131952 14.1489 0.0514274 14.5016 0.191934C14.8542 0.33244 15.1736 0.545711 15.4392 0.817989L15.5858 0.981743L20.923 7.41999H24.9737C25.2585 7.41938 25.5402 7.47928 25.8004 7.59575C26.0605 7.71222 26.2933 7.88264 26.4834 8.09585C26.6736 8.30907 26.8167 8.56026 26.9036 8.83299C26.9905 9.10571 27.0191 9.39381 26.9876 9.67843L26.8627 10.7237L26.727 11.7335L26.6157 12.4895L26.4868 13.3015L26.3403 14.1544L26.1747 15.0386L25.9901 15.9406C25.8924 16.3955 25.7875 16.8499 25.6753 17.3039C25.3749 18.5021 24.9978 19.6795 24.5463 20.8287L24.2464 21.5656L23.956 22.2315L23.6818 22.8238L23.5543 23.0885L23.2164 23.7572C22.7821 24.5896 21.9625 25.0808 21.0953 25.1518L20.8782 25.16H6.11233C5.63792 25.1635 5.17144 25.0375 4.76274 24.7952C4.35403 24.5529 4.01844 24.2036 3.79181 23.7844L3.47698 23.1704L3.23271 22.6655L3.10379 22.3857L2.83239 21.773C2.21263 20.3259 1.7098 18.8309 1.32879 17.3025C1.25512 17.0058 1.18455 16.7083 1.1171 16.4101L0.924399 15.5258L0.752055 14.6606L0.600068 13.8241L0.464364 13.0231L0.346303 12.2671L0.245882 11.5671L0.123749 10.635L0.0341852 9.8763L0.0111157 9.66751C-0.0169552 9.39942 0.00826955 9.12839 0.0853226 8.87018C0.162376 8.61198 0.289719 8.37177 0.459943 8.16351C0.630168 7.95526 0.839875 7.78312 1.07687 7.65712C1.31386 7.53111 1.5734 7.45375 1.8404 7.42954L2.02495 7.41999H6.08112L11.417 0.981743ZM24.1989 10.1492H2.79846L2.8826 10.8097L2.98573 11.5575L3.11058 12.3817L3.25714 13.266C3.31142 13.5689 3.36841 13.8792 3.42812 14.1967L3.62218 15.1614C3.72531 15.65 3.8393 16.1467 3.96144 16.6407C4.30582 18.02 4.75962 19.3694 5.31847 20.6759L5.58445 21.2776L5.83143 21.8017L6.05262 22.2424L6.15033 22.4307H20.8429L21.0519 22.0173L21.2921 21.5192L21.5554 20.942C22.0534 19.8161 22.6233 18.3246 23.0413 16.6407C23.2109 15.9584 23.3616 15.2652 23.4959 14.5842L23.6859 13.5771L23.8487 12.6096L23.9207 12.147L24.0496 11.2778L24.1541 10.4999L24.1989 10.1492ZM10.7683 14.0193L11.4468 18.1131C11.4942 18.4647 11.4035 18.821 11.1941 19.1065C10.9846 19.392 10.6728 19.5842 10.3247 19.6425C9.97669 19.7007 9.61979 19.6203 9.32969 19.4183C9.03959 19.2164 8.83911 18.9088 8.77076 18.5607L8.09224 14.4669C8.05705 14.2877 8.058 14.1032 8.09503 13.9243C8.13205 13.7455 8.20441 13.576 8.3078 13.4258C8.41119 13.2756 8.54352 13.1478 8.69693 13.05C8.85034 12.9522 9.02173 12.8863 9.20091 12.8564C9.3801 12.8264 9.56345 12.8329 9.74009 12.8755C9.91673 12.9181 10.0831 12.996 10.2292 13.1044C10.3754 13.2129 10.4984 13.3497 10.591 13.5069C10.6836 13.664 10.7439 13.8383 10.7683 14.0193ZM17.6376 12.8784L17.795 12.8962C18.1235 12.9507 18.4206 13.1247 18.6297 13.3851C18.8389 13.6455 18.9456 13.9742 18.9295 14.3086L18.9119 14.4669L18.2333 18.5607C18.1758 18.9034 17.9904 19.2111 17.7149 19.421C17.4395 19.6309 17.0948 19.7272 16.7512 19.6903C16.4075 19.6534 16.0908 19.4861 15.8657 19.2224C15.6405 18.9587 15.5239 18.6186 15.5396 18.2714L15.5573 18.1131L16.2358 14.0193C16.29 13.6895 16.4626 13.3911 16.721 13.1808C16.9794 12.9706 17.3056 12.863 17.6376 12.8784ZM13.5014 2.72845L9.61348 7.41999H17.3893L13.5014 2.72845Z" fill="#E0E0E0"/>
</svg>
