<svg width="38" height="44" viewBox="0 0 38 44" fill="none" xmlns="http://www.w3.org/2000/svg">
<path d="M30.148 7.02266C28.4917 5.13121 27.5788 2.70258 27.5791 0.188477H20.0906V30.2395C20.034 31.8661 19.3478 33.4072 18.1768 34.5375C17.0057 35.6679 15.4414 36.2992 13.8138 36.2982C10.3724 36.2982 7.51276 33.4869 7.51276 29.9972C7.51276 25.8288 11.5357 22.7025 15.6798 23.9869V16.3288C7.31888 15.214 0 21.7089 0 29.9972C0 38.0673 6.68878 43.8109 13.7895 43.8109C21.3992 43.8109 27.5791 37.6311 27.5791 29.9972V14.7535C30.6157 16.9343 34.2615 18.1043 38 18.0979V10.6094C38 10.6094 33.4439 10.8275 30.148 7.02266Z" fill="white"/>
</svg>
